Coordinates
version=1
nRows=14
nColumns=24
inDegrees=yes

Units are S.I. units (second, meters, Newtons, ...)
Angles are in degrees.

endheader
time	pelvis_tilt	pelvis_list	pelvis_rotation	pelvis_tx	pelvis_ty	pelvis_tz	hip_flexion_r	hip_adduction_r	hip_rotation_r	knee_angle_r	ankle_angle_r	subtalar_angle_r	mtp_angle_r	hip_flexion_l	hip_adduction_l	hip_rotation_l	knee_angle_l	ankle_angle_l	subtalar_angle_l	mtp_angle_l	lumbar_extension	lumbar_bending	lumbar_rotation
      4.57500000	    -20.26781834	     10.64555657	     -5.10396980	     -0.76432018	     -0.04104679	     -0.28786694	     21.95795378	     -7.99505898	      4.83593882	    -61.52558755	    -39.89197084	    -17.24273260	     10.20808223	     42.56332538	     13.81085192	      4.81495487	    -26.60906638	     17.41770589	      8.58848754	    -71.25785541	     14.04804862	    -10.22889106	      7.33424674
      4.58000000	    -20.16964054	     10.74197093	     -5.16258938	     -0.75675926	     -0.03954055	     -0.28790431	     23.06793001	     -7.65277921	      5.35894305	    -62.90692510	    -37.90850589	    -18.75639082	      6.97895481	     41.58565011	     13.87936402	      4.58756960	    -26.04805784	     18.01039901	      9.10315066	    -71.49824751	     13.94869974	    -10.26043051	      7.21305331
      4.58500000	    -20.11126046	     10.80730791	     -5.18972157	     -0.74922658	     -0.03802375	     -0.28796449	     24.19379101	     -7.27627619	      5.84132441	    -64.16926633	    -35.92261471	    -20.08784462	      3.71290093	     40.61740072	     13.95609212	      4.48188485	    -25.43632099	     18.49578468	      9.48009141	    -71.65647077	     13.88764590	    -10.26701430	      7.05894798
      4.59000000	    -20.02353166	     10.93528934	     -5.28007328	     -0.74168099	     -0.03638450	     -0.28810419	     25.25990161	     -6.95359884	      6.50326545	    -65.17514745	    -34.67564925	    -21.52147125	      3.20736955	     39.56270626	     14.10281128	      4.47071068	    -24.68493385	     18.78494403	      9.56660630	    -71.64032358	     13.81771066	    -10.30383012	      6.95693120
      4.59500000	    -19.94032581	     10.88752556	     -5.24739489	     -0.73416685	     -0.03475300	     -0.28810761	     26.32146561	     -6.48281548	      6.74794345	    -66.32730559	    -32.05989770	    -22.16710923	     -2.91532575	     38.51447201	     14.13565767	      4.56807796	    -24.02598480	     19.18055289	      9.85732078	    -71.75034052	     13.70898830	    -10.23010400	      6.75738432
      4.60000000	    -19.88419700	     10.92922007	     -5.31893979	     -0.72665992	     -0.03305547	     -0.28823685	     27.36427206	     -6.07743010	      7.32844612	    -67.09707256	    -30.99979089	    -23.29138841	     -3.25551527	     37.44412641	     14.23403588	      4.72038567	    -23.20704111	     19.34447765	      9.77861290	    -71.73137857	     13.66646562	    -10.18451935	      6.67200017
      4.60500000	    -19.78527093	     10.84506282	     -5.26328000	     -0.71912929	     -0.03130205	     -0.28824492	     28.34842052	     -5.61002764	      7.47781019	    -67.98095918	    -28.56381793	    -23.66219748	     -9.19104701	     36.30624723	     14.27176406	      4.99562252	    -22.42335465	     19.53524625	      9.84521453	    -71.63601600	     13.54430437	    -10.08491397	      6.42801215
      4.61000000	    -19.65824943	     10.78152557	     -5.24588408	     -0.71161565	     -0.02945785	     -0.28847986	     29.23218592	     -5.19348241	      7.84340898	    -68.55889894	    -27.19820185	    -24.12302668	    -10.30016045	     35.08112874	     14.36303181	      5.47539424	    -21.51036904	     19.56996435	      9.57775067	    -71.60927253	     13.39604828	     -9.96650442	      6.23354416
      4.61500000	    -19.62578587	     10.73668078	     -5.33026824	     -0.70413763	     -0.02771486	     -0.28849365	     30.22980575	     -4.72921361	      8.28531855	    -69.01025365	    -26.26610060	    -24.78658896	    -10.58456633	     33.97548121	     14.36185096	      5.69045966	    -20.58637934	     19.58221555	      9.38473075	    -71.59382977	     13.38816652	     -9.84127904	      6.21042093
      4.62000000	    -19.52493466	     10.52532534	     -5.18271506	     -0.69662719	     -0.02582938	     -0.28864400	     31.07167221	     -4.25994963	      8.22785309	    -69.43347880	    -24.41661225	    -24.97311738	    -14.62025324	     32.71735636	     14.35044028	      6.40845635	    -19.63017365	     19.47433239	      9.11666527	    -71.25339900	     13.24146633	     -9.63974067	      5.85086358
      4.62500000	    -19.45025560	     10.39886690	     -5.22122461	     -0.68920351	     -0.02404685	     -0.28863830	     31.94444805	     -3.77940492	      8.57435691	    -69.68729604	    -23.20239620	    -24.91799306	    -14.47427655	     31.54648556	     14.27273124	      6.64792643	    -18.68124947	     19.43585809	      9.02388395	    -71.27744157	     13.16661994	     -9.46280763	      5.75534667
      4.63000000	    -19.38117556	     10.16529646	     -5.15600660	     -0.68178198	     -0.02222103	     -0.28878631	     32.74662835	     -3.28494332	      8.70811043	    -69.78022246	    -22.10313992	    -24.90423390	    -14.28370764	     30.32900941	     14.16021905	      7.22341304	    -17.69090756	     19.31465074	      8.76705999	    -71.28907024	     13.06642493	     -9.19794272	      5.52200611
      4.63500000	    -19.32995523	      9.88636292	     -5.07773382	     -0.67440169	     -0.02042327	     -0.28888966	     33.52977276	     -2.76345920	      8.79230679	    -69.75509340	    -21.00186365	    -24.74942520	    -13.87504634	     29.13920417	     13.98006564	      7.76481030	    -16.71708694	     19.18623820	      8.59139366	    -71.27711796	     12.97906442	     -8.90355161	      5.27854211
      4.64000000	    -19.27547424	      9.61758424	     -5.03297597	     -0.66701531	     -0.01863360	     -0.28899560	     34.28330933	     -2.26401476	      8.89425937	    -69.59701175	    -20.05140009	    -24.55930933	    -12.74402589	     27.89434099	     13.79800625	      8.50769405	    -15.63529849	     18.91089122	      8.16354148	    -71.19383956	     12.89989623	     -8.60566849	      5.11086141
